<?xml version="1.0" encoding="UTF-8"?>
<!DOCTYPE svg PUBLIC "-//W3C//DTD SVG 1.1//EN" "http://www.w3.org/Graphics/SVG/1.1/DTD/svg11.dtd">
<!-- Creator: CorelDRAW 2018 (64 Bit Versão de avaliação) -->
<svg xmlns="http://www.w3.org/2000/svg" xml:space="preserve" width="912px" height="300px" version="1.1" style="shape-rendering:geometricPrecision; text-rendering:geometricPrecision; image-rendering:optimizeQuality; fill-rule:evenodd; clip-rule:evenodd"
viewBox="0 0 387.82 127.61"
 xmlns:xlink="http://www.w3.org/1999/xlink">
 <defs>
  <style type="text/css">
   <![CDATA[
    .str0 {stroke:white;stroke-width:0.43;stroke-miterlimit:22.9256;stroke-opacity:0.400000}
    .fil0 {fill:none}
    .fil4 {fill:#1B1C1C;fill-rule:nonzero}
    .fil3 {fill:#FAD000;fill-rule:nonzero}
    .fil1 {fill:white}
    .fil2 {fill:white;fill-rule:nonzero}
   ]]>
  </style>
 </defs>
 <g id="Camada_x0020_1">
  <metadata id="CorelCorpID_0Corel-Layer"/>
  <g id="_1699997212720">
   <line class="fil0 str0" x1="324.01" y1="62.03" x2="11.85" y2= "62.03" />
   <path class="fil1" d="M324.01 0c35.24,0 63.81,28.57 63.81,63.8 0,35.24 -28.57,63.81 -63.81,63.81 -35.23,0 -63.8,-28.57 -63.8,-63.81 0,-35.23 28.57,-63.8 63.8,-63.8z"/>
   <path class="fil2" d="M3.32 54.2l10.36 5.99c1.02,0.59 1.37,1.88 0.79,2.89 -0.2,0.35 -0.48,0.61 -0.79,0.79l-10.49 6.06c-1.01,0.59 -2.31,0.24 -2.9,-0.77 -0.19,-0.34 -0.29,-0.71 -0.28,-1.07l-0.01 -12.12c0,-1.18 0.95,-2.13 2.13,-2.13 0.44,0 0.85,0.13 1.19,0.36zm2.99 6.63l-2.06 -1.18 0 4.76 4.14 -2.38 -2.08 -1.2z"/>
   <g>
    <polygon class="fil3" points="301.26,38.92 284.2,55.98 324.01,95.8 363.83,55.98 346.76,38.92 "/>
    <path class="fil4" d="M300.26 45.6c0.29,0.29 0.72,0.43 1,0.43 0.28,0 0.71,-0.14 1,-0.43l5.68 -5.69c0.57,-0.57 0.57,-1.42 0,-1.99 -0.57,-0.57 -1.42,-0.57 -1.99,0l-5.69 5.69c-0.56,0.57 -0.56,1.42 0,1.99zm39.82 -5.69l5.69 5.69c0.28,0.29 0.71,0.43 0.99,0.43 0.29,0 0.72,-0.14 1,-0.43 0.57,-0.57 0.57,-1.42 0,-1.99l-5.69 -5.69c-0.57,-0.57 -1.42,-0.57 -1.99,0 -0.57,0.57 -0.57,1.42 0,1.99zm-38.25 -5.26l21.61 0 14.22 14.22 -2.27 0c-0.85,0 -1.42,0.57 -1.42,1.42 0,0.86 0.57,1.43 1.42,1.43l3.55 0 -14.93 34.84 -14.93 -34.84 20.62 0c0.85,0 1.42,-0.57 1.42,-1.43 0,-0.85 -0.57,-1.42 -1.42,-1.42l-19.34 0 8.96 -8.96c0.57,-0.57 0.57,-1.42 0,-1.99 -0.57,-0.57 -1.42,-0.57 -1.99,0l-11.38 11.38 0 0c-0.14,0.14 -0.14,0.28 -0.28,0.42l0 0.15c0,0.14 0,0.28 -0.14,0.42 0,0 0,0 0,0.15l0 0c0,0.14 0,0.28 0.14,0.42l0 0 14.22 32.99 -32.28 -32.13 13.65 0c0.85,0 1.42,-0.57 1.42,-1.43 0,-0.85 -0.57,-1.42 -1.42,-1.42l-13.65 0 14.22 -14.22zm58.59 14.22l-13.66 0c-0.85,0 -1.42,0.57 -1.42,1.42 0,0.86 0.57,1.43 1.42,1.43l13.66 0 -32.14 32.13 14.22 -32.99 0 0c0,-0.14 0.14,-0.28 0.14,-0.42l0 0c0,0 0,0 0,-0.15 0,-0.14 0,-0.28 -0.14,-0.42l0 -0.15c0,-0.14 -0.14,-0.28 -0.29,-0.42l0 0 -14.78 -14.65 18.77 0 14.22 14.22zm-77.5 1.99c0.14,0.14 0.14,0.29 0.28,0.43l39.82 39.82c0,0 0,0 0.14,0 0.14,0.14 0.14,0.14 0.28,0.28l0.15 0c0.14,0 0.28,0.14 0.42,0.14 0.14,0 0.29,0 0.43,-0.14l0.14 0c0.14,0 0.29,-0.14 0.29,-0.28 0,0 0,0 0.14,0l39.81 -39.82c0.15,-0.14 0.29,-0.29 0.29,-0.43 0.14,-0.28 0.14,-0.71 0,-1.14 -0.14,-0.14 -0.14,-0.28 -0.29,-0.42l-17.06 -17.07c-0.28,-0.28 -0.57,-0.42 -1,-0.42l-45.5 0c-0.43,0 -0.71,0.14 -1,0.42l-17.06 17.07c-0.14,0.14 -0.28,0.28 -0.28,0.42 -0.15,0.43 -0.15,0.72 0,1.14zm41.09 15.08c-0.85,0 -1.42,0.56 -1.42,1.42l0 5.69c0,0.85 0.57,1.42 1.42,1.42 0.86,0 1.42,-0.57 1.42,-1.42l0 -5.69c0,-0.86 -0.56,-1.42 -1.42,-1.42z"/>
   </g>
  </g>
 </g>
</svg>
