<?xml version="1.0" encoding="UTF-8"?>
<!DOCTYPE svg PUBLIC "-//W3C//DTD SVG 1.1//EN" "http://www.w3.org/Graphics/SVG/1.1/DTD/svg11.dtd">
<!-- Creator: CorelDRAW 2018 (64 Bit Versão de avaliação) -->
<svg xmlns="http://www.w3.org/2000/svg" xml:space="preserve" width="912px" height="300px" version="1.1" style="shape-rendering:geometricPrecision; text-rendering:geometricPrecision; image-rendering:optimizeQuality; fill-rule:evenodd; clip-rule:evenodd"
viewBox="0 0 387.82 127.61"
 xmlns:xlink="http://www.w3.org/1999/xlink">
 <defs>
  <style type="text/css">
   <![CDATA[
    .str0 {stroke:white;stroke-width:0.43;stroke-miterlimit:22.9256;stroke-opacity:0.400000}
    .fil0 {fill:none}
    .fil1 {fill:white}
    .fil4 {fill:#1B1C1C;fill-rule:nonzero}
    .fil3 {fill:#FAD000;fill-rule:nonzero}
    .fil2 {fill:white;fill-rule:nonzero}
   ]]>
  </style>
 </defs>
 <g id="Camada_x0020_1">
  <metadata id="CorelCorpID_0Corel-Layer"/>
  <g id="_1699997201584">
   <line class="fil0 str0" x1="324.01" y1="62.03" x2="11.85" y2= "62.03" />
   <circle class="fil1" cx="324.01" cy="63.8" r="63.8"/>
   <path class="fil2" d="M3.32 54.2l10.36 5.99c1.02,0.59 1.37,1.88 0.79,2.89 -0.2,0.35 -0.48,0.61 -0.79,0.79l-10.49 6.06c-1.01,0.59 -2.31,0.24 -2.9,-0.77 -0.19,-0.34 -0.29,-0.71 -0.28,-1.07l-0.01 -12.12c0,-1.18 0.95,-2.13 2.13,-2.13 0.44,0 0.85,0.13 1.19,0.36zm2.99 6.63l-2.06 -1.18 0 4.76 4.14 -2.38 -2.08 -1.2z"/>
   <g>
    <path class="fil3" d="M324.01 50.35c-11.09,0 -20.17,9.08 -20.17,20.18 0,11.09 9.08,20.17 20.17,20.17 11.1,0 20.18,-9.08 20.18,-20.17 -11.1,0 -20.18,-9.08 -20.18,-20.18z"/>
    <path class="fil4" d="M295.93 62.63l-6.72 6.72c-0.67,0.67 -0.67,1.68 0,2.35 0.34,0.34 0.84,0.51 1.18,0.51 0.33,0 0.84,-0.17 1.17,-0.51l6.73 -6.72c0.67,-0.67 0.67,-1.68 0,-2.35 -0.67,-0.68 -1.68,-0.68 -2.36,0zm70.12 5.04c-1.18,-1.01 -1.85,-2.35 -1.85,-3.87 0,-1.51 0.67,-2.86 1.85,-3.86 2.18,2.18 3.53,3.69 3.69,3.86 -0.16,0.34 -1.51,1.85 -3.69,3.87zm-80.54 3.36l12.78 -12.78c0.67,-0.67 0.67,-1.68 0,-2.35 -0.67,-0.67 -1.68,-0.67 -2.36,0l-12.94 12.95c-2.86,-2.69 -4.54,-4.71 -4.71,-5.05 0.84,-1.01 21.69,-25.22 45.73,-25.22 16.65,0 31.61,11.44 39.68,19 -1.68,1.52 -2.86,3.87 -2.86,6.22 0,2.36 1.01,4.71 2.86,6.22 -8.07,7.57 -23.03,19 -39.68,19 -15.8,0 -30.26,-10.42 -38.5,-17.99zm38.5 -35.81c-25.22,0 -46.07,23.71 -48.42,26.4 -1.01,1.17 -1.01,3.02 0,4.37 2.35,2.69 23.2,26.4 48.42,26.4 25.22,0 46.07,-23.71 48.42,-26.4 1.01,-1.18 1.01,-3.03 0,-4.37 -2.35,-2.69 -23.2,-26.4 -48.42,-26.4zm14.13 40.35l-2.36 -2.35c1.85,-2.36 3.03,-5.21 3.2,-8.41 1,0.34 2.18,0.51 3.36,0.51 -0.17,4.03 -1.85,7.56 -4.2,10.25zm-15.14 -26.9c-3.19,0.17 -6.05,1.35 -8.4,3.2l-2.36 -2.19c2.86,-2.35 6.39,-3.87 10.26,-4.2 0,1.01 0.17,2.18 0.5,3.19zm2.69 30.1c2.86,-0.34 5.55,-1.52 7.74,-3.2l2.35 2.36c-2.86,2.35 -6.22,3.86 -10.09,4.2l0 -3.36zm-11.09 -3.2c2.18,1.68 4.87,2.86 7.73,3.2l0 3.36c-3.87,-0.34 -7.4,-1.85 -10.09,-4.2l2.36 -2.36zm-4.71 -23.54l2.35 2.36c-1.68,2.18 -2.85,4.87 -3.19,7.73l-3.36 0c0.33,-3.87 1.85,-7.4 4.2,-10.09zm-4.2 13.45l3.36 0c0.34,2.86 1.51,5.55 3.19,7.74l-2.35 2.35c-2.35,-2.69 -3.87,-6.22 -4.2,-10.09zm30.09 -1.68l0 0c0,6.56 -5.21,11.77 -11.77,11.77 -6.55,0 -11.77,-5.21 -11.77,-11.77 0,-6.55 5.22,-11.77 11.77,-11.77l0 0c0.17,0.68 0.51,1.18 0.84,1.68 0,0 0,0.17 0.17,0.17 0.34,0.51 0.51,1.01 0.84,1.52 0,0.16 0.17,0.16 0.17,0.33 0.34,0.51 0.67,0.84 1.01,1.35 0.17,0.17 0.17,0.17 0.33,0.33 0.85,1.01 1.85,2.02 2.86,2.86 0.17,0.17 0.17,0.17 0.34,0.34 0.5,0.33 0.84,0.67 1.34,1.01 0.17,0 0.17,0.17 0.34,0.17 0.51,0.33 1.01,0.67 1.51,0.84 0,0 0.17,0 0.17,0.16 0.67,0.51 1.18,0.68 1.85,1.01l0 0zm8.41 -1.68c-2.19,0 -4.37,-0.33 -6.22,-1.18 -0.67,-0.16 -1.18,-0.5 -1.68,-0.67 0,0 -0.17,0 -0.17,-0.17 -0.51,-0.33 -1.01,-0.5 -1.52,-0.84 -0.16,0 -0.16,-0.16 -0.33,-0.16 -0.51,-0.34 -1.01,-0.68 -1.35,-1.01l-0.16 -0.17c-1.01,-0.84 -2.02,-1.68 -2.86,-2.86l-0.17 -0.17c-0.34,-0.5 -0.67,-0.84 -1.01,-1.34 0,0 -0.17,-0.17 -0.17,-0.34 -0.33,-0.5 -0.67,-1.01 -0.84,-1.51 0,0 0,-0.17 -0.17,-0.17 -0.33,-0.5 -0.5,-1.18 -0.67,-1.68 -0.84,-1.85 -1.18,-4.04 -1.18,-6.22 0,-1.01 -0.67,-1.68 -1.68,-1.68 -6.05,0 -11.43,2.35 -15.47,6.38l0 0c-4.03,4.04 -6.38,9.42 -6.38,15.47 0,6.06 2.35,11.44 6.38,15.47l0 0c4.04,3.87 9.42,6.39 15.47,6.39 6.06,0 11.44,-2.35 15.47,-6.39l0 0c3.87,-4.03 6.39,-9.41 6.39,-15.47 0,-1.01 -0.67,-1.68 -1.68,-1.68zm-54.98 -6.22l-6.73 6.73c-0.67,0.67 -0.67,1.68 0,2.35 0.34,0.34 0.68,0.5 1.18,0.5 0.51,0 0.84,-0.16 1.18,-0.5l6.72 -6.73c0.68,-0.67 0.68,-1.68 0,-2.35 -0.67,-0.67 -1.68,-0.67 -2.35,0z"/>
   </g>
  </g>
 </g>
</svg>
