<?xml version="1.0" encoding="UTF-8"?>
<!DOCTYPE svg PUBLIC "-//W3C//DTD SVG 1.1//EN" "http://www.w3.org/Graphics/SVG/1.1/DTD/svg11.dtd">
<!-- Creator: CorelDRAW 2018 (64 Bit Versão de avaliação) -->
<svg xmlns="http://www.w3.org/2000/svg" xml:space="preserve" width="692px" height="503px" version="1.1" style="shape-rendering:geometricPrecision; text-rendering:geometricPrecision; image-rendering:optimizeQuality; fill-rule:evenodd; clip-rule:evenodd"
viewBox="0 0 165.09 120.14"
 xmlns:xlink="http://www.w3.org/1999/xlink">
 <defs>
  <style type="text/css">
   <![CDATA[
    .fil1 {fill:white;fill-rule:nonzero}
    .fil0 {fill:white;fill-rule:nonzero}
   ]]>
  </style>
 </defs>
 <g id="Camada_x0020_1">
  <metadata id="CorelCorpID_0Corel-Layer"/>
  <g id="_1699883555328">
   <path class="fil0" d="M0 0l30.42 0 32.06 31.24 -32.06 31.24 -30.42 0 32.06 -31.24 -32.06 -31.24zm15.21 0m31.24 15.62m0 31.24m-31.24 15.62m0.82 -15.62m0 -31.24"/>
   <path class="fil1" d="M62.48 17.53l49.96 0 52.65 51.3 -52.65 51.31 -49.96 0 52.65 -51.31 -52.65 -51.3zm24.98 0m51.3 25.65m0 51.31m-51.3 25.65m1.34 -25.65m0 -51.31"/>
   <path class="fil0" d="M63.39 50.52l17.83 0 18.79 18.31 -18.79 18.31 -17.83 0 18.79 -18.31 -18.79 -18.31zm8.92 0m18.31 9.16m0 18.31m-18.31 9.15m0.48 -9.15m0 -18.31"/>
  </g>
 </g>
</svg>
