<?xml version="1.0" encoding="UTF-8"?>
<!DOCTYPE svg PUBLIC "-//W3C//DTD SVG 1.1//EN" "http://www.w3.org/Graphics/SVG/1.1/DTD/svg11.dtd">
<!-- Creator: CorelDRAW 2018 (64 Bit Versão de avaliação) -->
<svg xmlns="http://www.w3.org/2000/svg" xml:space="preserve" width="912px" height="300px" version="1.1" style="shape-rendering:geometricPrecision; text-rendering:geometricPrecision; image-rendering:optimizeQuality; fill-rule:evenodd; clip-rule:evenodd"
viewBox="0 0 387.82 127.61"
 xmlns:xlink="http://www.w3.org/1999/xlink">
 <defs>
  <style type="text/css">
   <![CDATA[
    .str0 {stroke:white;stroke-width:0.43;stroke-miterlimit:22.9256;stroke-opacity:0.400000}
    .fil0 {fill:none}
    .fil1 {fill:white}
    .fil3 {fill:#1B1C1C;fill-rule:nonzero}
    .fil2 {fill:#FAD000;fill-rule:nonzero}
    .fil4 {fill:white;fill-rule:nonzero}
   ]]>
  </style>
 </defs>
 <g id="Camada_x0020_1">
  <metadata id="CorelCorpID_0Corel-Layer"/>
  <g id="_1700003331472">
   <line class="fil0 str0" x1="324.01" y1="62.03" x2="11.85" y2= "62.03" />
   <circle class="fil1" cx="324.01" cy="63.8" r="63.8"/>
   <g>
    <path class="fil2" d="M328.74 80.94l-37.83 -47.28 18.92 66.2 18.91 -18.92zm9.46 -4.72l18.91 -9.46 -60.52 -30.26 4.27 6.11 37.34 33.61z"/>
    <path class="fil3" d="M310.3 27.87c-0.59,-0.24 -1.3,0 -1.54,0.47 -0.23,0.59 0,1.3 0.48,1.54l9.45 4.72c0.24,0.24 0.36,0.24 0.59,0.24 0.48,0 0.83,-0.24 1.07,-0.71 0.23,-0.59 0,-1.3 -0.48,-1.54l-9.57 -4.72zm28.13 42.2l-40.19 -36.18 56.27 28.14 -16.08 8.04zm-10.28 8.51l2.6 10.28 -5.08 -7.68 2.48 -2.6zm-17.73 14.3l-16.79 -58.63 33.46 41.85 -16.67 16.78zm22.93 -3.19l-3.43 -13.71 0 0c0,-0.12 -0.12,-0.24 -0.12,-0.36l0 -0.11 -28.96 -36.06 36.06 32.39 -3.55 17.85zm24.24 -28.72l-66.2 -33.1 -0.12 0 -0.12 -0.12c-0.12,0 -0.24,0 -0.24,0 -0.12,0 -0.12,0 -0.23,0 -0.12,0 -0.12,0 -0.24,0.12l-0.12 0c0,0 0,0 -0.12,0l-0.12 0.11 -0.11 0.12 0 0.12c0,0.12 -0.12,0.12 -0.12,0.24 0,0.12 0,0.12 0,0.23 -0.12,0.12 -0.12,0.24 -0.12,0.24 0,0.12 0,0.12 0,0.24l0 0.11 18.91 66.2c0.12,0.36 0.48,0.71 0.83,0.83 0.12,0 0.24,0 0.36,0 0.35,0 0.59,-0.12 0.82,-0.35l13.13 -13.12 8.63 13c0.11,0.12 0.11,0.24 0.23,0.24 0,0 0,0 0.12,0 0.12,0 0.12,0.11 0.24,0.11l0.12 0c0.11,0 0.23,0 0.35,0l0 0c0,0 0,0 0.12,0 0.12,0 0.23,0 0.23,0 0,0 0.12,0 0.12,-0.11 0,0 0.12,0 0.12,-0.12l0 0c0.12,-0.12 0.12,-0.12 0.24,-0.24 0,0 0,-0.12 0.12,-0.12 0.11,-0.12 0.11,-0.23 0.11,-0.35l0 0 4.61 -23.05 18.45 -9.22c0.35,-0.24 0.7,-0.6 0.7,-1.07 0,-0.47 -0.23,-0.71 -0.7,-0.94zm-9.11 9.69c-0.47,-0.47 -1.18,-0.47 -1.65,0 -0.47,0.47 -0.47,1.18 0,1.65l9.46 9.46c0.23,0.24 0.59,0.36 0.82,0.36 0.24,0 0.59,-0.12 0.83,-0.36 0.47,-0.47 0.47,-1.18 0,-1.65l-9.46 -9.46zm-1.65 11.11c0.23,0.24 0.59,0.36 0.83,0.36 0.23,0 0.59,-0.12 0.82,-0.36 0.48,-0.47 0.48,-1.18 0,-1.65l-4.73 -4.73c-0.47,-0.47 -1.18,-0.47 -1.65,0 -0.47,0.47 -0.47,1.18 0,1.65l4.73 4.73zm-4.73 4.73l4.73 4.73c0.23,0.24 0.59,0.35 0.83,0.35 0.23,0 0.59,-0.11 0.82,-0.35 0.48,-0.47 0.48,-1.18 0,-1.66l-4.73 -4.72c-0.47,-0.48 -1.18,-0.48 -1.65,0 -0.47,0.47 -0.47,1.18 0,1.65zm-50.01 -29.44c-0.11,-0.59 -0.82,-1.06 -1.41,-0.82 -0.6,0.12 -1.07,0.82 -0.83,1.42l4.73 18.91c0,0.47 0.59,0.83 1.06,0.83 0.12,0 0.24,0 0.24,0 0.59,-0.12 1.06,-0.83 0.82,-1.42l-4.61 -18.92z"/>
   </g>
   <path class="fil4" d="M3.32 54.2l10.36 5.99c1.02,0.59 1.37,1.88 0.79,2.89 -0.2,0.35 -0.48,0.61 -0.79,0.79l-10.49 6.06c-1.01,0.59 -2.31,0.24 -2.9,-0.77 -0.19,-0.34 -0.29,-0.71 -0.28,-1.07l-0.01 -12.12c0,-1.18 0.95,-2.13 2.13,-2.13 0.44,0 0.85,0.13 1.19,0.36zm2.99 6.63l-2.06 -1.18 0 4.76 4.14 -2.38 -2.08 -1.2z"/>
  </g>
 </g>
</svg>
