<?xml version="1.0" encoding="UTF-8"?>
<!DOCTYPE svg PUBLIC "-//W3C//DTD SVG 1.1//EN" "http://www.w3.org/Graphics/SVG/1.1/DTD/svg11.dtd">
<!-- Creator: CorelDRAW 2018 (64 Bit Versão de avaliação) -->
<svg xmlns="http://www.w3.org/2000/svg" xml:space="preserve" width="1000px" height="460px" version="1.1" style="shape-rendering:geometricPrecision; text-rendering:geometricPrecision; image-rendering:optimizeQuality; fill-rule:evenodd; clip-rule:evenodd"
viewBox="0 0 1050.14 482.55"
 xmlns:xlink="http://www.w3.org/1999/xlink">
 <defs>
  <style type="text/css">
   <![CDATA[
    .fil2 {fill:none}
    .fil1 {fill:#FAF400}
    .fil0 {fill:white;fill-rule:nonzero}
   ]]>
  </style>
 </defs>
 <g id="Camada_x0020_1">
  <metadata id="CorelCorpID_0Corel-Layer"/>
  <g id="_2622706669728">
   <g>
    <path class="fil0" d="M113.25 162.11c0,-0.31 -0.15,-0.78 -0.31,-1.09l-19.56 -51.87c-0.23,-0.7 -0.62,-1.17 -1.48,-1.17l-4.23 0c-0.94,0 -1.25,0.47 -1.48,1.17l-19.64 51.87c-0.15,0.39 -0.31,0.78 -0.31,1.09 0,0.55 0.39,1.1 1.17,1.1l3.84 0c0.86,0 1.17,-0.4 1.4,-1.1l6.5 -17.91 20.33 0 6.42 17.91c0.31,0.78 0.78,1.1 1.49,1.1l4.77 0c0.78,0 1.09,-0.47 1.09,-1.1zm-15.02 -22.06l-17.83 0 6.49 -18.07c1.49,-4.14 2.35,-9.15 2.35,-9.15l0.15 0c0,0 0.94,5.01 2.43,9.15l6.41 18.07zm51.63 10.95c0,-0.62 -0.47,-1.41 -1.25,-1.41 -0.78,0 -1.49,0.55 -1.8,1.26 -1.64,3.52 -4.23,7.74 -9.62,7.74 -8.37,0 -12.28,-8.06 -12.28,-17.36 0,-10.49 4.93,-15.81 10.4,-15.81 5.63,0 7.59,5.25 8.14,7.12 0.39,1.33 1.4,2.58 3.05,2.58 1.87,0 3.05,-1.17 3.05,-3.28 0,-2.97 -4.07,-10.09 -13.69,-10.09 -9.08,0 -16.9,6.88 -16.9,21.2 0,15.33 8.29,21.19 16.66,21.19 10.02,0 14.24,-9.46 14.24,-13.14zm35.59 4.7l0 -22.69c0,-7.51 -5.63,-11.26 -11.89,-11.26 -10.95,0 -15.1,6.8 -15.1,9.85 0,1.96 1.33,2.98 2.9,2.98 1.41,0 2.74,-0.94 3.05,-2.27 0.7,-2.82 3.05,-6.96 8.21,-6.96 3.84,0 6.57,2.97 6.57,7.35l0 5.55c-9.7,1.88 -22.45,4.7 -22.45,15.1 0,6.8 6.1,10.79 15.18,10.79 4.61,0 9.23,-1.33 10.71,-2.34 1.96,-1.41 2.82,-2.74 2.82,-6.1zm-6.26 -0.16c0,3.91 -3.83,4.93 -7.19,4.93 -5.95,0 -8.92,-3.6 -8.92,-7.59 0,-7.43 7.59,-9.7 16.11,-11.5l0 14.16zm48.97 0.55l0 -51.55c0,-0.78 -0.31,-1.17 -1.1,-1.17l-4.22 0c-0.78,0 -1.17,0.39 -1.17,1.17l0 19.55c-1.1,-0.78 -3.91,-2.34 -8.06,-2.34 -12.67,0 -18.38,12.2 -18.38,22.37 0,10.48 5.08,20.02 19.08,20.02 4.62,0 9.08,-1.17 11.11,-2.58 2.04,-1.41 2.74,-2.81 2.74,-5.47zm-6.49 -1.02c0,3.29 -2.19,4.93 -6.96,4.93 -6.11,0 -12.91,-4.93 -12.91,-16.66 0,-10.41 4.85,-17.92 12.59,-17.92 3.6,0 5.79,1.18 7.28,2.35l0 27.3zm48.18 -3.99c0,-0.62 -0.55,-1.41 -1.25,-1.41 -0.78,0 -1.41,0.55 -1.72,1.25 -1.8,3.52 -5.16,7.83 -10.56,7.83 -8.37,0 -12.2,-7.59 -12.44,-16.19l23.78 -3.99c1.33,-0.24 1.96,-0.55 1.96,-1.8 0,-7.2 -4.77,-15.02 -14.63,-15.02 -8.68,0 -16.97,6.41 -16.97,21.04 0,15.57 8.29,21.35 16.89,21.35 10.4,0 14.94,-9.38 14.94,-13.06zm-6.65 -15.25l-19.47 3.28c0.39,-6.88 3.59,-13.69 10.63,-13.69 6.18,0 8.53,5.09 8.84,10.41zm68.13 26.2l0 -28.31c0,-10.02 -8.37,-11.97 -13.53,-11.97 -6.02,0 -9.62,1.95 -11.97,4.93 -2.5,-3.13 -6.02,-4.93 -11.89,-4.93 -5.16,0 -9.15,1.01 -11.42,2.19 -1.95,1.02 -2.97,2.11 -2.97,4.77l0 33.32c0,0.78 0.31,1.18 1.1,1.18l4.22 0c0.78,0 1.1,-0.4 1.1,-1.18l0 -30.9c0,-4.45 2.81,-5.78 7.9,-5.78 5.32,0 8.29,3.05 8.29,8.68l0 28c0,0.78 0.39,1.18 1.17,1.18l4.22 0c0.79,0 1.1,-0.4 1.1,-1.18l0 -28.24c0,-5.24 2.35,-8.44 7.82,-8.44 5.32,0 8.37,3.13 8.37,8.68l0 28c0,0.78 0.39,1.18 1.17,1.18l4.15 0c0.78,0 1.17,-0.4 1.17,-1.18zm19.25 -50.92c0,-2.03 -1.72,-3.68 -4.07,-3.68 -2.35,0 -4.07,1.65 -4.07,3.68 0,2.03 1.72,3.68 4.07,3.68 2.35,0 4.07,-1.65 4.07,-3.68zm-0.79 50.92l0 -38.17c0,-0.78 -0.39,-1.17 -1.17,-1.17l-4.22 0c-0.79,0 -1.18,0.39 -1.18,1.17l0 38.17c0,0.78 0.39,1.18 1.18,1.18l4.22 0c0.78,0 1.17,-0.4 1.17,-1.18zm38.8 -6.33l0 -22.69c0,-7.51 -5.63,-11.26 -11.89,-11.26 -10.95,0 -15.09,6.8 -15.09,9.85 0,1.96 1.33,2.98 2.89,2.98 1.41,0 2.74,-0.94 3.05,-2.27 0.7,-2.82 3.05,-6.96 8.21,-6.96 3.84,0 6.57,2.97 6.57,7.35l0 5.55c-9.7,1.88 -22.44,4.7 -22.44,15.1 0,6.8 6.1,10.79 15.17,10.79 4.61,0 9.23,-1.33 10.72,-2.34 1.95,-1.41 2.81,-2.74 2.81,-6.1zm-6.26 -0.16c0,3.91 -3.83,4.93 -7.19,4.93 -5.95,0 -8.92,-3.6 -8.92,-7.59 0,-7.43 7.59,-9.7 16.11,-11.5l0 14.16z"/>
    <path class="fil0" d="M57.89 183.98l0 -1.32 38.81 0c13.82,0 23.86,1.54 30.11,4.6 6.24,3.1 10.82,6.91 13.69,11.52 2.87,4.57 4.29,10.63 4.29,18.14 0,11.52 -3.98,20.17 -11.93,25.97 -7.95,5.77 -18.74,8.55 -32.37,8.3l0 -1.33c8.65,0 15.65,-2.65 21.05,-7.95 5.39,-5.3 8.1,-12.27 8.1,-20.89 0,-6.72 -1.29,-12.68 -3.91,-17.89 -2.62,-5.2 -6.31,-9.15 -11.04,-11.86 -4.77,-2.71 -11.99,-4.07 -21.71,-4.07l-9.72 0 0 116.56c0,6.59 0.73,10.53 2.18,11.8 1.45,1.26 4.2,1.89 8.24,1.89l0 1.32 -35.79 0 0 -1.32c6.44,0 9.66,-2.93 9.66,-8.77l0 -112.77c0,-4.8 -0.63,-7.98 -1.86,-9.56 -1.23,-1.58 -3.82,-2.37 -7.8,-2.37z"/>
    <path class="fil0" d="M269.71 250.81l-74.78 0 0 52.41c0,4.92 0.23,8.08 0.7,9.43 0.44,1.36 1.32,2.5 2.59,3.41 1.23,0.92 3.43,1.39 6.56,1.39l0 1.32 -35.21 0 0 -1.32c6.43,0.44 9.65,-2.68 9.65,-9.34l0 -109.52c0,-6.21 -0.5,-10.16 -1.55,-11.83 -1,-1.67 -3.72,-2.59 -8.1,-2.78l0 -1.32 35.21 0 0 1.32c-3.85,0.25 -6.47,0.98 -7.83,2.21 -1.35,1.23 -2.02,3.76 -2.02,7.57l0 53.26 74.78 0 0 -48.71c0,-5.56 -0.47,-9.31 -1.45,-11.33 -0.98,-1.99 -3.72,-3 -8.2,-3l0 -1.32 35.02 0 0 1.32c-2.74,0 -4.83,0.32 -6.15,0.98 -1.36,0.63 -2.27,1.64 -2.78,3 -0.47,1.35 -0.72,4.79 -0.72,10.35l0 104.53c0,5.36 0.25,8.71 0.72,10.03 0.51,1.33 1.36,2.43 2.59,3.29 1.23,0.85 3.34,1.29 6.34,1.29l0 1.32 -35.02 0 0 -1.32c3.85,0 6.44,-0.76 7.73,-2.3 1.29,-1.55 1.92,-5.71 1.92,-12.5l0 -51.84z"/>
    <path class="fil0" d="M400.95 182.66l20.44 0 0 1.32c-2.58,0.19 -4.73,0.82 -6.37,1.86 -1.67,1.04 -3.6,3.22 -5.74,6.5l-33.32 50.52 0 62.32c0,5.04 0.66,8.36 1.95,9.9 1.3,1.58 4.14,2.37 8.46,2.37l0 1.32 -36.54 0 0 -1.32c7.07,0.44 10.6,-2.34 10.6,-8.27l-0.18 -3.91 0 -57.87 -33.32 -54.87c-3.51,-5.87 -7.42,-8.74 -11.74,-8.55l0 -1.32 32.18 0 0 1.32c-3,0 -4.51,1.14 -4.51,3.44 0,1.17 0.79,3 2.33,5.46l27.46 45.25 30.03 -45.53c0.57,-0.51 1.17,-1.42 1.87,-2.78 0.66,-1.33 1.01,-2.24 1.01,-2.75 0,-2.05 -1.36,-3.09 -4.04,-3.09l-0.57 0 0 -1.32z"/>
    <path class="fil0" d="M506.81 184.17l6.44 17.04 -1.13 0.19c0,-0.06 -1.71,-1.86 -5.12,-5.4 -3.4,-3.53 -7.32,-6.28 -11.7,-8.2 -4.39,-1.93 -9.34,-2.87 -14.86,-2.87 -9.28,0 -16.63,2.65 -22.09,7.98 -5.43,5.3 -8.14,11.71 -8.14,19.22 0,4.98 1.26,9.3 3.75,13.03 2.5,3.72 7.83,7.19 15.97,10.38 13.98,4.64 23.54,8.17 28.68,10.54 5.14,2.4 10.1,6.4 14.86,12.08 4.77,5.71 7.16,13 7.16,21.87 0,3.72 -0.44,7.26 -1.29,10.63 -0.85,3.35 -2.24,6.6 -4.16,9.72 -1.9,3.12 -4.2,5.96 -6.88,8.52 -2.68,2.55 -5.4,4.51 -8.17,5.84 -2.78,1.32 -7.17,2.33 -13.13,3.03 -5.96,0.66 -9.91,1 -11.83,1l-36.32 0 0 -39.56 1.32 0c0.13,13.06 3.22,22.15 9.25,27.29 6.06,5.14 15.46,7.73 28.21,7.73 11.61,0 20.41,-2.74 26.41,-8.2 6.02,-5.49 9.02,-12.06 9.02,-19.75 0,-4.67 -1.04,-8.65 -3.15,-11.93 -2.09,-3.28 -5.02,-6.19 -8.77,-8.68 -3.76,-2.49 -10.86,-5.52 -21.33,-9.15 -10.42,-3.66 -17.71,-6.88 -21.93,-9.59 -4.23,-2.75 -7.77,-6.88 -10.61,-12.4 -2.84,-5.52 -4.26,-11.14 -4.26,-16.88 0,-10.54 3.63,-19.37 10.86,-26.54 7.26,-7.16 16.75,-10.73 28.52,-10.73 4.58,0 9.5,0.54 14.8,1.58 5.3,1.04 8.27,1.71 8.9,2.02 0.22,0.13 0.47,0.19 0.72,0.19z"/>
    <path class="fil0" d="M579.14 182.66l0 1.32c-1.77,-0.19 -3.75,0.1 -5.93,0.82 -2.18,0.76 -3.47,1.83 -3.88,3.25 -0.41,1.42 -0.6,4.77 -0.6,10.07l0 104.53c0,5.68 0.22,9.15 0.69,10.41 0.44,1.27 1.36,2.31 2.68,3.13 1.3,0.85 3.66,1.26 7.04,1.26l0 1.32 -36.35 0 0 -1.32c4.58,0 7.45,-0.88 8.55,-2.62 1.11,-1.77 1.67,-5.77 1.67,-11.99l0 -103.52c0,-6.47 -0.63,-10.7 -1.86,-12.72 -1.23,-1.99 -4.04,-2.87 -8.36,-2.62l0 -1.32 36.35 0z"/>
    <path class="fil0" d="M716.95 189.31l5.08 14.55 -1.26 0c-13.19,-13.13 -28.71,-19.69 -46.6,-19.69 -18.55,0 -33.54,5.52 -44.96,16.54 -11.46,11.04 -17.17,24.39 -17.17,40.03 0,9.66 2.53,20.8 7.61,33.36 18.59,45.95 86.15,47.79 108.53,22.02l3.06 0.5 -9.38 18.71c-32.22,7 -79.59,12.41 -104.26,-14.16 -12.28,-13.25 -18.43,-29.12 -18.43,-47.58 0,-12.47 3.15,-24.49 9.46,-36 6.35,-11.52 15.43,-20.61 27.33,-27.23 11.89,-6.66 25.49,-9.98 40.77,-9.98 7.66,0 14.26,0.7 19.84,2.09 5.59,1.42 10.22,2.84 13.92,4.35l6.09 2.3c0.19,0.07 0.31,0.13 0.37,0.19z"/>
    <path class="fil0" d="M879.71 318.77l0 -1.32c4.29,0 7.03,-0.79 8.33,-2.4 1.26,-1.61 1.89,-4.35 1.89,-8.23l0 -111.48c0,-3.94 -0.5,-6.78 -1.48,-8.55 -1.01,-1.74 -3.98,-2.68 -8.93,-2.81l0 -1.32 36.54 0 0 1.32c-3.38,0 -5.75,0.44 -7.1,1.3 -1.36,0.85 -2.24,1.89 -2.69,3.06 -0.41,1.16 -0.63,3.81 -0.63,7.95l0 95.57c0,8.2 1.96,13.98 5.9,17.32 3.95,3.38 10.7,5.05 20.26,5.05l16.63 0c8.01,0 13.88,-1.99 17.61,-5.93 3.72,-3.95 5.8,-11.36 6.24,-22.28l1.33 0 0 32.75 -93.9 0z"/>
    <path class="fil0" d="M632.63 407.31c0,-1.04 -0.72,-1.68 -1.69,-1.68 -0.64,0 -1.2,0.24 -1.76,0.8 -2.41,2.49 -6.34,5.94 -13.41,5.94 -10.68,0 -18.31,-10.6 -18.31,-25.77 0,-15.02 7.07,-23.37 16.46,-23.37 7.95,0 10.92,5.46 12.05,8.03 0.56,1.29 1.6,2.49 3.29,2.49 1.85,0 3.37,-1.12 3.37,-3.37 0,-3.37 -5.86,-11.64 -18.39,-11.64 -15.81,0 -24.56,13.81 -24.56,28.98 0,15.5 7.86,30.11 25.37,30.11 10.43,0 17.58,-7.55 17.58,-10.52zm40.15 -3.13c0,-0.64 -0.57,-1.44 -1.29,-1.44 -0.8,0 -1.44,0.56 -1.77,1.28 -1.84,3.61 -5.29,8.03 -10.83,8.03 -8.6,0 -12.53,-7.79 -12.77,-16.62l24.41 -4.1c1.36,-0.24 2,-0.56 2,-1.84 0,-7.39 -4.89,-15.42 -15.01,-15.42 -8.91,0 -17.42,6.59 -17.42,21.6 0,15.98 8.51,21.92 17.34,21.92 10.68,0 15.34,-9.64 15.34,-13.41zm-6.83 -15.66l-19.99 3.38c0.4,-7.07 3.69,-14.05 10.92,-14.05 6.34,0 8.75,5.21 9.07,10.67zm48.34 26.9l0 -29.06c0,-10.28 -9.24,-12.29 -16.3,-12.29 -5.7,0 -9.8,1.05 -12.21,2.25 -2.25,1.12 -3.05,2.41 -3.05,4.9l0 34.2c0,0.8 0.32,1.21 1.13,1.21l4.33 0c0.8,0 1.21,-0.41 1.21,-1.21l0 -31.95c0,-2.65 0.56,-5.7 8.27,-5.7 7.62,0 9.95,4.49 9.95,8.91l0 28.74c0,0.8 0.32,1.21 1.13,1.21l4.33 0c0.8,0 1.21,-0.41 1.21,-1.21zm29.62 -0.72c0,-0.8 -0.48,-1.37 -1.6,-1.37 -0.73,0 -1.13,0.25 -2.09,0.25 -2.33,0 -5.22,-1.13 -5.22,-6.99l0 -27.7 7.07 0c0.8,0 1.12,-0.32 1.12,-1.12l0 -1.53c0,-0.8 -0.32,-1.2 -1.12,-1.2l-7.07 0 0 -9.88c0,-0.8 -0.24,-1.12 -1.04,-1.12 -0.32,0 -0.73,0.32 -1.05,0.48l-3.77 2.25c-0.72,0.48 -0.8,1.04 -0.8,2l0 6.27 -4.5 0c-0.8,0 -1.12,0.4 -1.12,1.2l0 1.53c0,0.8 0.32,1.12 1.12,1.12l4.5 0 0 27.62c0,9.63 5.94,10.92 9.39,10.92 3.61,0 6.18,-1.21 6.18,-2.73zm39.02 -10.52c0,-0.64 -0.56,-1.44 -1.28,-1.44 -0.8,0 -1.45,0.56 -1.77,1.28 -1.84,3.61 -5.3,8.03 -10.84,8.03 -8.59,0 -12.52,-7.79 -12.76,-16.62l24.41 -4.1c1.36,-0.24 2,-0.56 2,-1.84 0,-7.39 -4.89,-15.42 -15.01,-15.42 -8.91,0 -17.42,6.59 -17.42,21.6 0,15.98 8.51,21.92 17.34,21.92 10.68,0 15.33,-9.64 15.33,-13.41zm-6.82 -15.66l-19.99 3.38c0.4,-7.07 3.69,-14.05 10.92,-14.05 6.34,0 8.75,5.21 9.07,10.67zm39.98 -9.63c0,-2.57 -2.57,-4.82 -9.07,-4.82 -4.49,0 -8.75,1.13 -11,2.25 -2.25,1.12 -3.13,2.41 -3.13,4.9l0 34.2c0,0.8 0.32,1.21 1.12,1.21l4.34 0c0.8,0 1.2,-0.41 1.2,-1.21l0 -32.92c0,-2.89 2.17,-4.57 5.79,-4.57 4.65,0 4.33,3.93 7.7,3.93 2.01,0 3.05,-1.2 3.05,-2.97z"/>
    <g>
     <path class="fil0" d="M740.88 334.66c-1.39,2.64 -4.53,3.58 -7.01,2.11 -2.48,-1.48 -3.36,-4.82 -1.97,-7.46 8.68,-16.49 16.57,-33.73 23.86,-51.5 7.34,-17.9 14.1,-36.35 20.46,-55.12l0 0 0.23 -0.7 0.13 -0.36c12.49,-36.82 22.73,-67.37 -8.29,-97.11l-0.26 -0.26 -30.48 -30.91c-2.06,-2.08 -2.13,-5.55 -0.18,-7.74 1.96,-2.19 5.22,-2.28 7.28,-0.19l30.51 30.93 0.03 0.03c36.15,34.65 24.85,68.34 11.06,108.95l-0.09 0.3 -0.23 0.7 -0.01 0 -0.01 0.02c-6.47,19.09 -13.31,37.78 -20.72,55.83 -7.45,18.17 -15.5,35.75 -24.31,52.48z"/>
     <path class="fil0" d="M873.97 329.31c1.39,2.64 0.51,5.98 -1.97,7.46 -2.48,1.47 -5.62,0.53 -7.01,-2.11 -8.81,-16.72 -16.85,-34.3 -24.31,-52.48 -7.4,-18.05 -14.25,-36.74 -20.72,-55.83l-0.01 -0.02 -0.01 0 -0.23 -0.69 -0.09 -0.3c-13.79,-40.61 -25.09,-74.31 11.06,-108.96l0.03 -0.03 30.51 -30.93c2.06,-2.09 5.32,-2 7.27,0.19 1.96,2.19 1.88,5.66 -0.17,7.74l-30.48 30.91 -0.26 0.26c-31.02,29.74 -20.79,60.29 -8.29,97.12l0.13 0.36 0.23 0.69 -0.01 0c6.37,18.77 13.13,37.21 20.47,55.12 7.3,17.77 15.19,35.01 23.86,51.5z"/>
    </g>
    <path class="fil1" d="M802.94 48.33c15.9,0 28.8,12.89 28.8,28.8 0,15.9 -12.9,28.8 -28.8,28.8 -15.91,0 -28.8,-12.9 -28.8,-28.8 0,-15.91 12.89,-28.8 28.8,-28.8z"/>
   </g>
   <rect class="fil2" width="1050.14" height="482.55"/>
  </g>
 </g>
</svg>
