<?xml version="1.0" encoding="UTF-8"?>
<!DOCTYPE svg PUBLIC "-//W3C//DTD SVG 1.1//EN" "http://www.w3.org/Graphics/SVG/1.1/DTD/svg11.dtd">
<!-- Creator: CorelDRAW 2018 (64 Bit Versão de avaliação) -->
<svg xmlns="http://www.w3.org/2000/svg" xml:space="preserve" width="150px" height="109px" version="1.1" style="shape-rendering:geometricPrecision; text-rendering:geometricPrecision; image-rendering:optimizeQuality; fill-rule:evenodd; clip-rule:evenodd"
viewBox="0 0 131.73 95.86"
 xmlns:xlink="http://www.w3.org/1999/xlink">
 <defs>
  <style type="text/css">
   <![CDATA[
    .fil1 {fill:#FAD000;fill-rule:nonzero}
    .fil0 {fill:#FAD000;fill-rule:nonzero;fill-opacity:0.701961}
   ]]>
  </style>
 </defs>
 <g id="Camada_x0020_1">
  <metadata id="CorelCorpID_0Corel-Layer"/>
  <path class="fil0" d="M0 0l24.27 0 25.58 24.93 -25.58 24.92 -24.27 0 25.58 -24.92 -25.58 -24.93zm12.14 0m24.92 12.46m0 24.93m-24.92 12.46m0.65 -12.46m0 -24.93"/>
  <path class="fil1" d="M49.85 13.98l39.87 0 42.01 40.94 -42.01 40.94 -39.87 0 42.01 -40.94 -42.01 -40.94zm19.93 0m40.94 20.47m0 40.94m-40.94 20.47m1.08 -20.47m0 -40.94"/>
  <path class="fil0" d="M50.58 40.31l14.23 0 14.99 14.61 -14.99 14.61 -14.23 0 14.99 -14.61 -14.99 -14.61zm7.12 0m14.6 7.31m0 14.61m-14.6 7.3m0.38 -7.3m0 -14.61"/>
 </g>
</svg>
